<?xml version="1.0" encoding="UTF-8"?><svg xmlns="http://www.w3.org/2000/svg" xmlns:xlink="http://www.w3.org/1999/xlink" contentScriptType="text/ecmascript" width="1440" zoomAndPan="magnify" contentStyleType="text/css" viewBox="0 0 1440 809.999993" height="809.999993" preserveAspectRatio="xMidYMid meet" version="1.0"><path fill="rgb(99.609375%, 44.709778%, 1.179504%)" d="M 602.796875 206.910156 C 598.890625 205.132812 594.984375 203.003906 591.253906 201.050781 L 591.253906 -285.523438 C 594.984375 -287.476562 598.890625 -289.605469 602.796875 -291.382812 Z M 556.625 -263.324219 C 552.71875 -260.484375 548.8125 -257.285156 545.082031 -254.269531 L 545.082031 170.148438 C 548.8125 173.167969 552.71875 176.367188 556.625 179.207031 Z M 672.054688 -313.402344 C 668.144531 -312.691406 664.238281 -311.980469 660.511719 -311.09375 L 660.511719 226.976562 C 664.238281 227.863281 668.144531 228.574219 672.054688 229.285156 Z M 625.882812 -300.972656 C 621.976562 -299.550781 618.070312 -298.128906 614.339844 -296.53125 L 614.339844 212.058594 C 618.070312 213.65625 621.976562 215.078125 625.882812 216.5 Z M 648.96875 -308.074219 C 645.0625 -307.007812 641.152344 -305.945312 637.425781 -304.699219 L 637.425781 220.9375 C 641.152344 222.179688 645.0625 223.246094 648.96875 224.3125 Z M 464.105469 -142.390625 C 459.488281 -130.316406 455.582031 -117.886719 452.5625 -105.277344 L 452.5625 21.160156 C 455.402344 33.945312 459.3125 46.375 464.105469 58.273438 Z M 521.820312 -232.78125 L 521.820312 148.664062 C 525.726562 152.570312 529.457031 156.300781 533.539062 160.027344 L 533.363281 -243.96875 C 529.457031 -240.417969 525.546875 -236.511719 521.820312 -232.78125 Z M 914.804688 -237.929688 L 914.804688 153.8125 C 918.714844 149.90625 922.796875 145.820312 926.347656 141.558594 L 926.347656 -225.675781 C 922.621094 -229.761719 918.714844 -234.023438 914.804688 -237.929688 Z M 695.316406 -316.421875 C 691.410156 -316.066406 687.503906 -315.710938 683.773438 -315.179688 L 683.773438 231.0625 C 687.503906 231.59375 691.410156 231.949219 695.316406 232.304688 Z M 510.277344 -219.816406 C 506.191406 -215.023438 502.464844 -210.226562 498.734375 -205.078125 L 498.734375 120.960938 C 502.464844 126.109375 506.191406 130.90625 510.277344 135.699219 Z M 487.191406 -188.207031 C 483.105469 -181.636719 479.199219 -174.890625 475.648438 -167.785156 L 475.472656 83.847656 C 479.199219 90.773438 482.75 97.519531 487.011719 104.269531 Z M 579.535156 -278.773438 C 575.625 -276.289062 571.898438 -273.980469 567.992188 -271.492188 L 567.992188 187.375 C 571.898438 189.863281 575.625 192.171875 579.535156 194.65625 Z M 949.433594 -196.199219 C 945.707031 -201.703125 941.976562 -206.855469 937.890625 -212.003906 L 937.890625 127.886719 C 941.976562 122.734375 945.882812 117.410156 949.433594 112.082031 Z M 903.261719 -248.761719 C 899.535156 -252.136719 895.628906 -255.332031 891.71875 -258.53125 L 891.542969 174.234375 C 895.449219 171.039062 899.355469 167.84375 903.085938 164.46875 Z M 880 -267.054688 C 876.269531 -269.71875 872.363281 -272.203125 868.457031 -274.691406 L 868.28125 190.75 C 872.1875 188.261719 876.09375 185.777344 879.824219 183.113281 Z M 718.222656 -317.664062 C 714.316406 -317.664062 710.589844 -317.488281 706.679688 -317.488281 L 706.679688 233.015625 C 710.410156 233.191406 714.316406 233.191406 718.222656 233.191406 Z M 995.605469 -63.011719 C 994.007812 -84.144531 990.101562 -104.390625 984.0625 -123.921875 L 984.0625 39.804688 C 990.101562 20.273438 994.007812 0.0273438 995.605469 -21.105469 Z M 856.914062 -281.617188 C 853.007812 -283.746094 849.277344 -285.699219 845.371094 -287.832031 L 845.371094 203.714844 C 849.277344 201.582031 853.007812 199.628906 856.914062 197.496094 Z M 972.699219 -154.46875 C 969.144531 -162.28125 965.417969 -169.917969 961.15625 -177.375 L 961.15625 93.257812 C 965.417969 85.800781 969.144531 78.164062 972.699219 70.351562 Z M 764.574219 -314.289062 C 760.84375 -314.824219 756.9375 -315.535156 753.03125 -315.890625 L 752.851562 231.59375 C 756.757812 231.238281 760.664062 230.527344 764.394531 229.996094 Z M 833.828125 -293.335938 C 829.921875 -295.113281 826.191406 -296.710938 822.285156 -298.128906 L 822.285156 214.367188 C 826.191406 212.949219 830.101562 211.171875 833.828125 209.574219 Z M 741.308594 -316.953125 C 737.402344 -317.308594 733.671875 -317.488281 729.765625 -317.488281 L 729.765625 233.371094 C 733.671875 233.371094 737.582031 233.015625 741.308594 232.835938 Z M 787.480469 -309.496094 C 783.75 -310.382812 779.84375 -311.449219 775.9375 -312.160156 L 775.9375 228.042969 C 779.84375 227.332031 783.574219 226.445312 787.480469 225.378906 Z M 810.742188 -302.570312 C 807.015625 -303.8125 803.109375 -305.234375 799.199219 -306.300781 L 799.199219 222.179688 C 803.109375 221.117188 806.835938 219.875 810.742188 218.453125 Z M 810.742188 -302.570312 " fill-opacity="1" fill-rule="nonzero"/></svg>