<svg xmlns="http://www.w3.org/2000/svg" width="1440" viewBox="0 0 1440 810" height="810" version="1.0"><defs><clipPath id="a"><path d="M 0 0 L 1440 0 L 1440 187 L 0 187 Z M 0 0"/></clipPath><clipPath id="b"><path d="M -7.742188 642.570312 L -686.726562 -1092.292969 L 1108.898438 -1795.054688 L 1787.882812 -60.191406 Z M -7.742188 642.570312"/></clipPath><clipPath id="c"><path d="M -8.75 642.964844 L -687.730469 -1091.898438 L 1109.988281 -1795.480469 L 1788.972656 -60.617188 Z M -8.75 642.964844"/></clipPath></defs><g clip-path="url(#a)"><g clip-path="url(#b)"><g clip-path="url(#c)"><path fill="#FE7203" d="M 176.550781 -1406.132812 C 10.714844 -1301.878906 -107.628906 -1140.828125 -202.753906 -972.296875 C -286.5625 -823.519531 -350.136719 -661.125 -363.789062 -489.683594 C -370.628906 -406.652344 -371.085938 -315.761719 -344.890625 -236.132812 C -318.835938 -156.863281 -272.75 -84.605469 -213.671875 -25.710938 C -154.175781 34.257812 -79.613281 80.875 0.691406 106.191406 C 91.570312 135.238281 186.75 134.023438 281.417969 134.664062 C 496.386719 135.859375 707.429688 184.148438 922.960938 186.777344 C 1113.574219 189.21875 1313.816406 148.539062 1457.320312 13.679688 C 1594.046875 -115.21875 1627.804688 -304.050781 1593.898438 -483.800781 C 1554.523438 -689.160156 1438.28125 -871.890625 1294.941406 -1021.238281 C 1223.308594 -1096.339844 1144.25 -1163.976562 1062.4375 -1228.050781 C 981.410156 -1291.191406 899.164062 -1354.269531 812.34375 -1408.929688 C 733.71875 -1458.515625 649.132812 -1495.824219 555.808594 -1503.617188 C 467.136719 -1511.164062 376.9375 -1496.160156 293.707031 -1464.410156 C 252.269531 -1448.609375 213.378906 -1428.417969 176.550781 -1406.132812"/></g></g></g></svg>