<?xml version="1.0" encoding="UTF-8"?><svg xmlns="http://www.w3.org/2000/svg" xmlns:xlink="http://www.w3.org/1999/xlink" contentScriptType="text/ecmascript" width="1440" zoomAndPan="magnify" contentStyleType="text/css" viewBox="0 0 1440 809.999993" height="809.999993" preserveAspectRatio="xMidYMid meet" version="1.0"><path fill="rgb(99.609375%, 44.709778%, 1.179504%)" d="M 98.589844 256.261719 C 97.796875 254.152344 97.136719 251.90625 96.476562 249.792969 L 277.324219 68.949219 C 279.433594 69.609375 281.679688 70.269531 283.789062 71.058594 Z M 256.203125 64.328125 C 253.695312 63.933594 251.054688 63.667969 248.546875 63.402344 L 90.800781 221.148438 C 91.0625 223.65625 91.328125 226.296875 91.722656 228.804688 Z M 317.714844 88.617188 C 316 87.429688 314.285156 86.242188 312.566406 85.183594 L 112.582031 285.171875 C 113.636719 286.886719 114.824219 288.605469 116.011719 290.320312 Z M 295.933594 76.078125 C 293.957031 75.152344 291.976562 74.226562 289.996094 73.4375 L 100.964844 262.46875 C 101.757812 264.445312 102.679688 266.425781 103.605469 268.40625 Z M 307.15625 82.015625 C 305.308594 80.960938 303.460938 79.90625 301.613281 78.980469 L 106.246094 274.347656 C 107.167969 276.195312 108.226562 278.042969 109.28125 279.890625 Z M 176.867188 74.886719 C 170.664062 77.660156 164.589844 80.828125 158.78125 84.394531 L 111.789062 131.386719 C 108.09375 137.195312 104.925781 143.265625 102.285156 149.472656 Z M 231.914062 62.742188 L 90.140625 204.515625 C 90.140625 207.421875 90.140625 210.191406 90.273438 213.097656 L 240.359375 62.875 C 237.589844 62.742188 234.683594 62.742188 231.914062 62.742188 Z M 379.890625 206.894531 L 234.289062 352.496094 C 237.191406 352.496094 240.230469 352.496094 243.132812 352.230469 L 379.625 215.738281 C 379.757812 212.832031 379.890625 209.796875 379.890625 206.894531 Z M 327.484375 96.140625 C 325.898438 94.820312 324.316406 93.5 322.730469 92.3125 L 119.710938 295.335938 C 120.898438 296.921875 122.21875 298.503906 123.539062 300.089844 Z M 222.804688 63.273438 C 219.503906 63.535156 216.335938 63.933594 213.035156 64.460938 L 91.855469 185.640625 C 91.328125 188.941406 90.933594 192.109375 90.667969 195.410156 Z M 202.476562 66.441406 C 198.515625 67.363281 194.554688 68.421875 190.59375 69.742188 L 97.003906 163.199219 C 95.816406 167.160156 94.628906 170.988281 93.703125 175.078125 Z M 270.457031 67.101562 C 268.082031 66.570312 265.839844 66.042969 263.460938 65.515625 L 92.914062 236.066406 C 93.441406 238.441406 93.96875 240.6875 94.496094 243.0625 Z M 377.25 235.273438 C 377.910156 231.84375 378.4375 228.542969 378.835938 225.109375 L 252.503906 351.4375 C 255.9375 351.042969 259.371094 350.515625 262.671875 349.855469 Z M 379.625 198.578125 C 379.496094 195.9375 379.230469 193.296875 378.964844 190.65625 L 218.050781 351.4375 C 220.691406 351.703125 223.332031 351.964844 225.972656 352.097656 Z M 377.777344 183.132812 C 377.382812 180.757812 376.855469 178.378906 376.324219 176.003906 L 203.269531 348.929688 C 205.644531 349.457031 208.019531 349.984375 210.394531 350.382812 Z M 336.460938 104.195312 C 335.007812 102.742188 333.554688 101.421875 332.105469 99.96875 L 127.496094 304.578125 C 128.816406 306.027344 130.269531 307.480469 131.722656 308.933594 Z M 344.910156 301.9375 C 352.167969 293.488281 358.242188 284.511719 363.257812 275.007812 L 302.402344 335.863281 C 311.90625 330.84375 320.882812 324.773438 329.332031 317.511719 Z M 374.609375 169.140625 C 373.949219 166.894531 373.289062 164.785156 372.628906 162.539062 L 189.933594 345.234375 C 192.179688 345.894531 194.292969 346.554688 196.535156 347.214844 Z M 370.386719 259.429688 C 371.96875 255.207031 373.421875 250.984375 374.609375 246.625 L 274.023438 347.214844 C 278.378906 346.027344 282.601562 344.574219 286.828125 342.988281 Z M 352.433594 122.675781 C 351.246094 121.089844 350.058594 119.375 348.738281 117.789062 L 145.1875 321.210938 C 146.769531 322.527344 148.484375 323.71875 150.070312 324.90625 Z M 370.386719 156.203125 C 369.59375 154.089844 368.800781 152.109375 367.878906 150.132812 L 177.394531 340.613281 C 179.375 341.539062 181.488281 342.328125 183.46875 343.121094 Z M 344.777344 113.039062 C 343.457031 111.453125 342.136719 110 340.683594 108.550781 L 135.945312 313.289062 C 137.398438 314.742188 138.980469 316.0625 140.433594 317.382812 Z M 359.164062 132.96875 C 358.109375 131.253906 357.054688 129.40625 355.867188 127.691406 L 155.085938 328.46875 C 156.800781 329.65625 158.519531 330.714844 160.367188 331.769531 Z M 365.238281 144.191406 C 364.3125 142.34375 363.390625 140.363281 362.332031 138.515625 L 165.910156 334.9375 C 167.757812 335.992188 169.605469 336.917969 171.585938 337.839844 Z M 365.238281 144.191406 " fill-opacity="1" fill-rule="nonzero"/><path fill="rgb(99.609375%, 44.709778%, 1.179504%)" d="M 1208.359375 688.429688 C 1207.894531 687.191406 1207.507812 685.878906 1207.121094 684.640625 L 1313.132812 578.628906 C 1314.371094 579.015625 1315.6875 579.402344 1316.925781 579.867188 Z M 1300.75 575.917969 C 1299.28125 575.6875 1297.734375 575.53125 1296.261719 575.378906 L 1203.792969 667.847656 C 1203.949219 669.316406 1204.101562 670.863281 1204.335938 672.335938 Z M 1336.8125 590.15625 C 1335.804688 589.460938 1334.796875 588.765625 1333.792969 588.144531 L 1216.5625 705.375 C 1217.179688 706.382812 1217.875 707.390625 1218.574219 708.394531 Z M 1324.042969 582.804688 C 1322.882812 582.265625 1321.722656 581.722656 1320.5625 581.257812 L 1209.75 692.066406 C 1210.214844 693.226562 1210.757812 694.390625 1211.300781 695.550781 Z M 1330.621094 586.289062 C 1329.535156 585.667969 1328.453125 585.050781 1327.371094 584.507812 L 1212.847656 699.03125 C 1213.390625 700.113281 1214.007812 701.199219 1214.625 702.28125 Z M 1254.246094 582.109375 C 1250.609375 583.734375 1247.050781 585.59375 1243.644531 587.679688 L 1216.097656 615.230469 C 1213.929688 618.632812 1212.074219 622.191406 1210.527344 625.828125 Z M 1286.511719 574.992188 L 1203.40625 658.097656 C 1203.40625 659.800781 1203.40625 661.425781 1203.484375 663.128906 L 1291.464844 575.066406 C 1289.839844 574.992188 1288.136719 574.992188 1286.511719 574.992188 Z M 1373.257812 659.492188 L 1287.90625 744.839844 C 1289.609375 744.839844 1291.386719 744.839844 1293.089844 744.6875 L 1373.101562 664.675781 C 1373.179688 662.972656 1373.257812 661.191406 1373.257812 659.492188 Z M 1342.535156 594.566406 C 1341.609375 593.792969 1340.679688 593.019531 1339.75 592.324219 L 1220.738281 711.335938 C 1221.4375 712.265625 1222.210938 713.191406 1222.984375 714.121094 Z M 1281.175781 575.300781 C 1279.238281 575.453125 1277.382812 575.6875 1275.449219 575.996094 L 1204.414062 647.03125 C 1204.101562 648.964844 1203.871094 650.824219 1203.714844 652.757812 Z M 1269.257812 577.15625 C 1266.9375 577.699219 1264.613281 578.316406 1262.292969 579.09375 L 1207.429688 633.878906 C 1206.734375 636.199219 1206.039062 638.441406 1205.496094 640.839844 Z M 1309.109375 577.542969 C 1307.714844 577.234375 1306.398438 576.925781 1305.007812 576.617188 L 1205.03125 676.589844 C 1205.339844 677.984375 1205.652344 679.300781 1205.960938 680.691406 Z M 1371.710938 676.128906 C 1372.097656 674.113281 1372.40625 672.179688 1372.636719 670.167969 L 1298.585938 744.222656 C 1300.597656 743.988281 1302.609375 743.679688 1304.542969 743.292969 Z M 1373.101562 654.617188 C 1373.023438 653.066406 1372.871094 651.519531 1372.714844 649.972656 L 1278.386719 744.222656 C 1279.9375 744.375 1281.484375 744.53125 1283.03125 744.609375 Z M 1372.019531 645.5625 C 1371.785156 644.167969 1371.476562 642.777344 1371.167969 641.382812 L 1269.722656 742.75 C 1271.113281 743.0625 1272.507812 743.371094 1273.898438 743.601562 Z M 1347.796875 599.289062 C 1346.949219 598.4375 1346.097656 597.664062 1345.246094 596.8125 L 1225.304688 716.75 C 1226.078125 717.601562 1226.929688 718.453125 1227.78125 719.304688 Z M 1352.75 715.203125 C 1357.007812 710.25 1360.566406 704.988281 1363.507812 699.417969 L 1327.835938 735.089844 C 1333.40625 732.152344 1338.667969 728.589844 1343.621094 724.335938 Z M 1370.160156 637.359375 C 1369.773438 636.042969 1369.386719 634.804688 1369 633.492188 L 1261.90625 740.585938 C 1263.222656 740.972656 1264.460938 741.359375 1265.773438 741.746094 Z M 1367.683594 690.289062 C 1368.613281 687.8125 1369.464844 685.335938 1370.160156 682.78125 L 1311.199219 741.746094 C 1313.75 741.050781 1316.226562 740.199219 1318.703125 739.269531 Z M 1357.160156 610.121094 C 1356.464844 609.191406 1355.769531 608.1875 1354.996094 607.257812 L 1235.675781 726.5 C 1236.601562 727.277344 1237.609375 727.972656 1238.539062 728.667969 Z M 1367.683594 629.777344 C 1367.222656 628.539062 1366.757812 627.378906 1366.214844 626.214844 L 1254.554688 737.875 C 1255.714844 738.417969 1256.953125 738.882812 1258.113281 739.347656 Z M 1352.671875 604.472656 C 1351.898438 603.542969 1351.125 602.691406 1350.273438 601.839844 L 1230.257812 721.859375 C 1231.109375 722.710938 1232.039062 723.484375 1232.886719 724.257812 Z M 1361.109375 616.15625 C 1360.488281 615.152344 1359.871094 614.066406 1359.171875 613.0625 L 1241.476562 730.757812 C 1242.484375 731.453125 1243.488281 732.074219 1244.574219 732.691406 Z M 1364.667969 622.734375 C 1364.125 621.652344 1363.585938 620.492188 1362.964844 619.40625 L 1247.824219 734.550781 C 1248.90625 735.167969 1249.988281 735.710938 1251.152344 736.25 Z M 1364.667969 622.734375 " fill-opacity="1" fill-rule="nonzero"/></svg>